<svg width="36" height="32" fill="none" xmlns="http://www.w3.org/2000/svg"><path d="M25.674 31.994a17.062 17.062 0 0 1-4.455-.567c-4.714-1.444-8.974-3.873-12.427-7.083-3.402-2.955-6.065-6.52-7.813-10.46C-.766 9.504-.171 5.832 2.71 3.259L5.17.98C5.954.283 7.042-.07 8.144.012c1.098.064 2.133.484 2.909 1.18l4.045 3.613c.87.78 1.391 1.817 1.467 2.916v.496a3.05 3.05 0 0 1-.54 2.041 3.657 3.657 0 0 1-1.8 1.348l-1.798.637c-.563.193-1.015.58-1.255 1.074a2.192 2.192 0 0 0 0 1.866 12.604 12.604 0 0 0 3.107 4.05 19.869 19.869 0 0 0 4.93 3.246c.807.418 1.788.47 2.645.141.638-.268 1.09-.796 1.216-1.416l.317-1.3c.18-.8.683-1.512 1.415-2a4.027 4.027 0 0 1 2.551-.643c1.225.088 2.374.566 3.24 1.345l4.058 3.625c.812.667 1.295 1.594 1.345 2.578.05.984-.339 1.946-1.08 2.675L32.43 29.67c-1.8 1.569-4.242 2.41-6.756 2.325ZM7.867 2.361a1.201 1.201 0 0 0-.82.284L4.588 4.84C2.447 6.741 2.024 9.492 3.465 13c1.614 3.611 4.07 6.875 7.205 9.575 3.136 2.941 7.017 5.168 11.316 6.493 2.565.696 6.108 1.062 8.54-1.098l2.46-2.196c.235-.29.338-.65.286-1.006a1.374 1.374 0 0 0-.564-.907l-4.046-3.612a2.61 2.61 0 0 0-1.52-.626 1.197 1.197 0 0 0-.776.172.98.98 0 0 0-.44.596l-.304 1.298c-.292 1.338-1.271 2.475-2.644 3.07a6.162 6.162 0 0 1-4.958-.177 22.532 22.532 0 0 1-5.42-3.672c-1.596-1.372-2.873-3.014-3.755-4.829a4.26 4.26 0 0 1 0-3.683c.513-1.084 1.495-1.936 2.724-2.361l1.798-.626c.223-.084.408-.231.528-.419a.892.892 0 0 0 .133-.62v-.484a2.155 2.155 0 0 0-.74-1.381L9.175 2.88a2.13 2.13 0 0 0-1.203-.52h-.106Z" fill="#000"/></svg>